{
  "accessors": [
    {
      "bufferView": 2,
      "componentType": 5126,
      "count": 57146,
      "max": [
        0.9476127624511719,
        0.308432012796402,
        1.9426448345184326
      ],
      "min": [
        -0.9313269853591919,
        -0.196574866771698,
        -0.10735400021076202
      ],
      "type": "VEC3"
    },
    {
      "bufferView": 2,
      "byteOffset": 685752,
      "componentType": 5126,
      "count": 57146,
      "max": [
        0.9999691247940063,
        1.0,
        0.9999785423278809
      ],
      "min": [
        -0.9999691247940063,
        -0.9999905228614807,
        -0.9999785423278809
      ],
      "type": "VEC3"
    },
    {
      "bufferView": 3,
      "componentType": 5126,
      "count": 57146,
      "max": [
        1.0,
        0.9999133348464966,
        0.9999508857727051,
        1.0
      ],
      "min": [
        -1.0,
        -0.9999328851699829,
        -0.9999988079071045,
        -1.0
      ],
      "type": "VEC4"
    },
    {
      "bufferView": 1,
      "componentType": 5126,
      "count": 57146,
      "max": [
        0.9992340207099915,
        0.9915099740028381
      ],
      "min": [
        0.00029200001154094934,
        0.00029200001154094934
      ],
      "type": "VEC2"
    },
    {
      "bufferView": 0,
      "componentType": 5125,
      "count": 327600,
      "type": "SCALAR"
    }
  ],
  "asset": {
    "extras": {
      "author": "CAPTAAINRO (https://sketchfab.com/CAPTAAINRO)",
      "license": "CC-BY-4.0 (http://creativecommons.org/licenses/by/4.0/)",
      "source": "https://sketchfab.com/3d-models/front-body-anatomy-15f7ed2eefb244dc94d32b6a7d989355",
      "title": "Front Body Anatomy"
    },
    "generator": "Sketchfab-15.55.0",
    "version": "2.0"
  },
  "bufferViews": [
    {
      "buffer": 0,
      "byteLength": 1310400,
      "name": "floatBufferViews",
      "target": 34963
    },
    {
      "buffer": 0,
      "byteLength": 457168,
      "byteOffset": 1310400,
      "byteStride": 8,
      "name": "floatBufferViews",
      "target": 34962
    },
    {
      "buffer": 0,
      "byteLength": 1371504,
      "byteOffset": 1767568,
      "byteStride": 12,
      "name": "floatBufferViews",
      "target": 34962
    },
    {
      "buffer": 0,
      "byteLength": 914336,
      "byteOffset": 3139072,
      "byteStride": 16,
      "name": "floatBufferViews",
      "target": 34962
    }
  ],
  "buffers": [
    {
      "byteLength": 4053408,
      "uri": "body.bin"
    }
  ],
  "images": [
    {
      "uri": "textures/object_0_baseColor.png"
    },
    {
      "uri": "textures/object_0_metallicRoughness.png"
    },
    {
      "uri": "textures/object_0_normal.png"
    }
  ],
  "materials": [
    {
      "doubleSided": true,
      "name": "object_0",
      "normalTexture": {
        "index": 2
      },
      "pbrMetallicRoughness": {
        "baseColorTexture": {
          "index": 0
        },
        "metallicFactor": 0.0,
        "metallicRoughnessTexture": {
          "index": 1
        }
      }
    }
  ],
  "meshes": [
    {
      "name": "Object_0",
      "primitives": [
        {
          "attributes": {
            "NORMAL": 1,
            "POSITION": 0,
            "TANGENT": 2,
            "TEXCOORD_0": 3
          },
          "indices": 4,
          "material": 0,
          "mode": 4
        }
      ]
    }
  ],
  "nodes": [
    {
      "children": [
        1
      ],
      "matrix": [
        1.0,
        0.0,
        0.0,
        0.0,
        0.0,
        2.220446049250313e-16,
        -1.0,
        0.0,
        0.0,
        1.0,
        2.220446049250313e-16,
        0.0,
        0.0,
        0.0,
        0.0,
        1.0
      ],
      "name": "Sketchfab_model"
    },
    {
      "children": [
        2
      ],
      "name": "model.obj.cleaner.materialmerger.gles"
    },
    {
      "mesh": 0,
      "name": "Object_2"
    }
  ],
  "samplers": [
    {
      "magFilter": 9729,
      "minFilter": 9987,
      "wrapS": 10497,
      "wrapT": 10497
    }
  ],
  "scene": 0,
  "scenes": [
    {
      "name": "Sketchfab_Scene",
      "nodes": [
        0
      ]
    }
  ],
  "textures": [
    {
      "sampler": 0,
      "source": 0
    },
    {
      "sampler": 0,
      "source": 1
    },
    {
      "sampler": 0,
      "source": 2
    }
  ]
}
